<svg id="Layer_1" data-name="Layer 1" xmlns="http://www.w3.org/2000/svg" viewBox="0 0 280 300"><defs><style>.cls-1{fill:#e5e5e5;}.cls-2{fill:#d9d9d9;}.cls-3{fill:#4455b7;}.cls-4{fill:#518ff5;}.cls-5{fill:#607b88;}</style></defs><path class="cls-1" d="M223.23,245.1H148.84L125.15,92.65h98.08a12,12,0,0,1,12,12V233.09A12,12,0,0,1,223.23,245.1Z"/><path class="cls-2" d="M223.23,245.1H148.84L125.15,92.65h21l89.07,88.4v52A12,12,0,0,1,223.23,245.1Z"/><polygon class="cls-3" points="148.84 245.1 181.53 209.2 136.5 209.2 148.84 245.1"/><path class="cls-4" d="M175.38,190.1l-2.66-8.27-11.93-37-2.31-7.17L144,92.65,131.83,54.9H56.76a12,12,0,0,0-12,12V197.19a12,12,0,0,0,12,12H181.53Zm-48.8-48.24a27.59,27.59,0,0,1-20.71,19.63,33.35,33.35,0,0,1-16-.18,31,31,0,0,1-11.35-5.72,31.27,31.27,0,0,1,30.26-53.82A30.33,30.33,0,0,1,118.86,108c-1,1.06-2,2-3,3.08l-5.75,5.74a17.05,17.05,0,0,0-6.74-4,18.37,18.37,0,0,0-18.5,4.81A19.51,19.51,0,0,0,80.29,125a18.92,18.92,0,0,0,0,12.17,19.41,19.41,0,0,0,7.16,9.6,18.43,18.43,0,0,0,7,3,20.56,20.56,0,0,0,7.46,0,17.86,17.86,0,0,0,6.88-2.72,14.68,14.68,0,0,0,6.26-9.65H98c0-4.06,0-8.13,0-12.19h29.4A36.78,36.78,0,0,1,126.58,141.86Z"/><path class="cls-5" d="M207.55,144.8h15.68v-7.34H187.54V125.62h-12v12H156.18v7.17h42.7A55.26,55.26,0,0,1,186,168.3c-7.82-9.23-10-14.49-10-14.49h-9.51s1.82,4.45,7.84,13.34a78.92,78.92,0,0,0,5.9,7.11c-7.89,8.07-12.24,12.07-12.24,12.07l6,5s5.53-5,11.65-11.22c9.94,10.52,22.38,22.73,22.38,22.73l5.67-6.17s-7.34-7-20.85-20.85c-.55-.56-1.07-1.1-1.57-1.64,2.23-2.45,4.34-4.92,6.07-7.2A60.57,60.57,0,0,0,207.55,144.8Z"/></svg>