<?xml version="1.0" encoding="UTF-8"?>
<!DOCTYPE svg PUBLIC "-//W3C//DTD SVG 1.1//EN" "http://www.w3.org/Graphics/SVG/1.1/DTD/svg11.dtd">
<svg xmlns="http://www.w3.org/2000/svg" version="1.1" width="4700px" height="5200px" style="shape-rendering:geometricPrecision; text-rendering:geometricPrecision; image-rendering:optimizeQuality; fill-rule:evenodd; clip-rule:evenodd" xmlns:xlink="http://www.w3.org/1999/xlink">
<g><path style="opacity:1" fill="#0dab39" d="M 2199.5,-0.5 C 2299.5,-0.5 2399.5,-0.5 2499.5,-0.5C 2499.5,32.8333 2499.5,66.1667 2499.5,99.5C 2566.17,99.5 2632.83,99.5 2699.5,99.5C 2699.5,132.833 2699.5,166.167 2699.5,199.5C 2766.17,199.5 2832.83,199.5 2899.5,199.5C 2899.5,232.833 2899.5,266.167 2899.5,299.5C 2966.17,299.5 3032.83,299.5 3099.5,299.5C 3099.5,332.833 3099.5,366.167 3099.5,399.5C 3166.17,399.5 3232.83,399.5 3299.5,399.5C 3299.5,432.833 3299.5,466.167 3299.5,499.5C 3366.17,499.5 3432.83,499.5 3499.5,499.5C 3499.5,532.833 3499.5,566.167 3499.5,599.5C 3566.17,599.5 3632.83,599.5 3699.5,599.5C 3699.5,632.833 3699.5,666.167 3699.5,699.5C 3766.17,699.5 3832.83,699.5 3899.5,699.5C 3899.5,732.833 3899.5,766.167 3899.5,799.5C 3966.17,799.5 4032.83,799.5 4099.5,799.5C 4099.5,832.833 4099.5,866.167 4099.5,899.5C 4132.83,899.5 4166.17,899.5 4199.5,899.5C 4199.5,932.833 4199.5,966.167 4199.5,999.5C 4166.17,999.5 4132.83,999.5 4099.5,999.5C 4099.5,1032.83 4099.5,1066.17 4099.5,1099.5C 4032.83,1099.5 3966.17,1099.5 3899.5,1099.5C 3899.5,1132.83 3899.5,1166.17 3899.5,1199.5C 3832.83,1199.5 3766.17,1199.5 3699.5,1199.5C 3699.5,1232.83 3699.5,1266.17 3699.5,1299.5C 3632.83,1299.5 3566.17,1299.5 3499.5,1299.5C 3499.5,1332.83 3499.5,1366.17 3499.5,1399.5C 3432.83,1399.5 3366.17,1399.5 3299.5,1399.5C 3299.5,1432.83 3299.5,1466.17 3299.5,1499.5C 3366.17,1499.5 3432.83,1499.5 3499.5,1499.5C 3499.5,1532.83 3499.5,1566.17 3499.5,1599.5C 3499.5,1632.83 3499.5,1666.17 3499.5,1699.5C 3432.83,1699.5 3366.17,1699.5 3299.5,1699.5C 3299.5,1732.83 3299.5,1766.17 3299.5,1799.5C 3232.83,1799.5 3166.17,1799.5 3099.5,1799.5C 3099.5,1832.83 3099.5,1866.17 3099.5,1899.5C 3032.83,1899.5 2966.17,1899.5 2899.5,1899.5C 2899.5,1932.83 2899.5,1966.17 2899.5,1999.5C 2832.83,1999.5 2766.17,1999.5 2699.5,1999.5C 2699.5,2032.83 2699.5,2066.17 2699.5,2099.5C 2632.83,2099.5 2566.17,2099.5 2499.5,2099.5C 2499.5,2132.83 2499.5,2166.17 2499.5,2199.5C 2466.17,2199.5 2432.83,2199.5 2399.5,2199.5C 2332.83,2199.5 2266.17,2199.5 2199.5,2199.5C 2199.5,2166.17 2199.5,2132.83 2199.5,2099.5C 2132.83,2099.5 2066.17,2099.5 1999.5,2099.5C 1999.5,2066.17 1999.5,2032.83 1999.5,1999.5C 1932.83,1999.5 1866.17,1999.5 1799.5,1999.5C 1799.5,1966.17 1799.5,1932.83 1799.5,1899.5C 1732.83,1899.5 1666.17,1899.5 1599.5,1899.5C 1599.5,1866.17 1599.5,1832.83 1599.5,1799.5C 1532.83,1799.5 1466.17,1799.5 1399.5,1799.5C 1399.5,1766.17 1399.5,1732.83 1399.5,1699.5C 1332.83,1699.5 1266.17,1699.5 1199.5,1699.5C 1199.5,1666.17 1199.5,1632.83 1199.5,1599.5C 1132.83,1599.5 1066.17,1599.5 999.5,1599.5C 999.5,1566.17 999.5,1532.83 999.5,1499.5C 932.833,1499.5 866.167,1499.5 799.5,1499.5C 799.5,1466.17 799.5,1432.83 799.5,1399.5C 732.833,1399.5 666.167,1399.5 599.5,1399.5C 599.5,1366.17 599.5,1332.83 599.5,1299.5C 532.833,1299.5 466.167,1299.5 399.5,1299.5C 399.5,1266.17 399.5,1232.83 399.5,1199.5C 332.833,1199.5 266.167,1199.5 199.5,1199.5C 199.5,1166.17 199.5,1132.83 199.5,1099.5C 199.5,1066.17 199.5,1032.83 199.5,999.5C 266.167,999.5 332.833,999.5 399.5,999.5C 399.5,966.167 399.5,932.833 399.5,899.5C 466.167,899.5 532.833,899.5 599.5,899.5C 599.5,866.167 599.5,832.833 599.5,799.5C 666.167,799.5 732.833,799.5 799.5,799.5C 799.5,766.167 799.5,732.833 799.5,699.5C 866.167,699.5 932.833,699.5 999.5,699.5C 999.5,666.167 999.5,632.833 999.5,599.5C 1066.17,599.5 1132.83,599.5 1199.5,599.5C 1199.5,566.167 1199.5,532.833 1199.5,499.5C 1266.17,499.5 1332.83,499.5 1399.5,499.5C 1399.5,466.167 1399.5,432.833 1399.5,399.5C 1466.17,399.5 1532.83,399.5 1599.5,399.5C 1599.5,366.167 1599.5,332.833 1599.5,299.5C 1666.17,299.5 1732.83,299.5 1799.5,299.5C 1799.5,266.167 1799.5,232.833 1799.5,199.5C 1866.17,199.5 1932.83,199.5 1999.5,199.5C 1999.5,166.167 1999.5,132.833 1999.5,99.5C 2066.17,99.5 2132.83,99.5 2199.5,99.5C 2199.5,66.1667 2199.5,32.8333 2199.5,-0.5 Z"/></g>
<g><path style="opacity:1" fill="#57d179" d="M 2399.5,499.5 C 2299.5,499.5 2199.5,499.5 2099.5,499.5C 2099.5,466.167 2099.5,432.833 2099.5,399.5C 2199.5,399.5 2299.5,399.5 2399.5,399.5C 2399.5,432.833 2399.5,466.167 2399.5,499.5 Z"/></g>
<g><path style="opacity:1" fill="#57d179" d="M 2099.5,499.5 C 2099.5,532.833 2099.5,566.167 2099.5,599.5C 2032.83,599.5 1966.17,599.5 1899.5,599.5C 1899.5,566.167 1899.5,532.833 1899.5,499.5C 1966.17,499.5 2032.83,499.5 2099.5,499.5 Z"/></g>
<g><path style="opacity:1" fill="#076722" d="M 2099.5,499.5 C 2199.5,499.5 2299.5,499.5 2399.5,499.5C 2399.5,532.833 2399.5,566.167 2399.5,599.5C 2466.17,599.5 2532.83,599.5 2599.5,599.5C 2599.5,632.833 2599.5,666.167 2599.5,699.5C 2666.17,699.5 2732.83,699.5 2799.5,699.5C 2799.5,732.833 2799.5,766.167 2799.5,799.5C 2866.17,799.5 2932.83,799.5 2999.5,799.5C 2999.5,832.833 2999.5,866.167 2999.5,899.5C 3066.17,899.5 3132.83,899.5 3199.5,899.5C 3199.5,932.833 3199.5,966.167 3199.5,999.5C 3266.17,999.5 3332.83,999.5 3399.5,999.5C 3399.5,1032.83 3399.5,1066.17 3399.5,1099.5C 3332.83,1099.5 3266.17,1099.5 3199.5,1099.5C 3199.5,1132.83 3199.5,1166.17 3199.5,1199.5C 3099.5,1199.5 2999.5,1199.5 2899.5,1199.5C 2899.5,1166.17 2899.5,1132.83 2899.5,1099.5C 2832.83,1099.5 2766.17,1099.5 2699.5,1099.5C 2699.5,1066.17 2699.5,1032.83 2699.5,999.5C 2632.83,999.5 2566.17,999.5 2499.5,999.5C 2499.5,966.167 2499.5,932.833 2499.5,899.5C 2432.83,899.5 2366.17,899.5 2299.5,899.5C 2299.5,866.167 2299.5,832.833 2299.5,799.5C 2232.83,799.5 2166.17,799.5 2099.5,799.5C 2099.5,766.167 2099.5,732.833 2099.5,699.5C 2032.83,699.5 1966.17,699.5 1899.5,699.5C 1899.5,666.167 1899.5,632.833 1899.5,599.5C 1966.17,599.5 2032.83,599.5 2099.5,599.5C 2099.5,566.167 2099.5,532.833 2099.5,499.5 Z"/></g>
<g><path style="opacity:1" fill="#57d179" d="M 2399.5,499.5 C 2466.17,499.5 2532.83,499.5 2599.5,499.5C 2599.5,532.833 2599.5,566.167 2599.5,599.5C 2532.83,599.5 2466.17,599.5 2399.5,599.5C 2399.5,566.167 2399.5,532.833 2399.5,499.5 Z"/></g>
<g><path style="opacity:1" fill="#57d179" d="M 1899.5,599.5 C 1899.5,632.833 1899.5,666.167 1899.5,699.5C 1832.83,699.5 1766.17,699.5 1699.5,699.5C 1699.5,666.167 1699.5,632.833 1699.5,599.5C 1766.17,599.5 1832.83,599.5 1899.5,599.5 Z"/></g>
<g><path style="opacity:1" fill="#57d179" d="M 2599.5,599.5 C 2666.17,599.5 2732.83,599.5 2799.5,599.5C 2799.5,632.833 2799.5,666.167 2799.5,699.5C 2732.83,699.5 2666.17,699.5 2599.5,699.5C 2599.5,666.167 2599.5,632.833 2599.5,599.5 Z"/></g>
<g><path style="opacity:1" fill="#57d179" d="M 2799.5,699.5 C 2866.17,699.5 2932.83,699.5 2999.5,699.5C 2999.5,732.833 2999.5,766.167 2999.5,799.5C 2932.83,799.5 2866.17,799.5 2799.5,799.5C 2799.5,766.167 2799.5,732.833 2799.5,699.5 Z"/></g>
<g><path style="opacity:1" fill="#57d179" d="M 1499.5,899.5 C 1399.5,899.5 1299.5,899.5 1199.5,899.5C 1199.5,866.167 1199.5,832.833 1199.5,799.5C 1299.5,799.5 1399.5,799.5 1499.5,799.5C 1499.5,832.833 1499.5,866.167 1499.5,899.5 Z"/></g>
<g><path style="opacity:1" fill="#57d179" d="M 2999.5,799.5 C 3066.17,799.5 3132.83,799.5 3199.5,799.5C 3199.5,832.833 3199.5,866.167 3199.5,899.5C 3132.83,899.5 3066.17,899.5 2999.5,899.5C 2999.5,866.167 2999.5,832.833 2999.5,799.5 Z"/></g>
<g><path style="opacity:1" fill="#57d179" d="M 1199.5,899.5 C 1199.5,932.833 1199.5,966.167 1199.5,999.5C 1132.83,999.5 1066.17,999.5 999.5,999.5C 999.5,966.167 999.5,932.833 999.5,899.5C 1066.17,899.5 1132.83,899.5 1199.5,899.5 Z"/></g>
<g><path style="opacity:1" fill="#076722" d="M 1199.5,899.5 C 1299.5,899.5 1399.5,899.5 1499.5,899.5C 1499.5,932.833 1499.5,966.167 1499.5,999.5C 1566.17,999.5 1632.83,999.5 1699.5,999.5C 1699.5,1032.83 1699.5,1066.17 1699.5,1099.5C 1766.17,1099.5 1832.83,1099.5 1899.5,1099.5C 1899.5,1132.83 1899.5,1166.17 1899.5,1199.5C 1966.17,1199.5 2032.83,1199.5 2099.5,1199.5C 2099.5,1232.83 2099.5,1266.17 2099.5,1299.5C 2166.17,1299.5 2232.83,1299.5 2299.5,1299.5C 2299.5,1332.83 2299.5,1366.17 2299.5,1399.5C 2366.17,1399.5 2432.83,1399.5 2499.5,1399.5C 2499.5,1432.83 2499.5,1466.17 2499.5,1499.5C 2566.17,1499.5 2632.83,1499.5 2699.5,1499.5C 2699.5,1532.83 2699.5,1566.17 2699.5,1599.5C 2632.83,1599.5 2566.17,1599.5 2499.5,1599.5C 2499.5,1632.83 2499.5,1666.17 2499.5,1699.5C 2399.5,1699.5 2299.5,1699.5 2199.5,1699.5C 2199.5,1666.17 2199.5,1632.83 2199.5,1599.5C 2132.83,1599.5 2066.17,1599.5 1999.5,1599.5C 1999.5,1566.17 1999.5,1532.83 1999.5,1499.5C 1932.83,1499.5 1866.17,1499.5 1799.5,1499.5C 1799.5,1466.17 1799.5,1432.83 1799.5,1399.5C 1732.83,1399.5 1666.17,1399.5 1599.5,1399.5C 1599.5,1366.17 1599.5,1332.83 1599.5,1299.5C 1532.83,1299.5 1466.17,1299.5 1399.5,1299.5C 1399.5,1266.17 1399.5,1232.83 1399.5,1199.5C 1332.83,1199.5 1266.17,1199.5 1199.5,1199.5C 1199.5,1166.17 1199.5,1132.83 1199.5,1099.5C 1132.83,1099.5 1066.17,1099.5 999.5,1099.5C 999.5,1066.17 999.5,1032.83 999.5,999.5C 1066.17,999.5 1132.83,999.5 1199.5,999.5C 1199.5,966.167 1199.5,932.833 1199.5,899.5 Z"/></g>
<g><path style="opacity:1" fill="#57d179" d="M 1499.5,899.5 C 1566.17,899.5 1632.83,899.5 1699.5,899.5C 1699.5,932.833 1699.5,966.167 1699.5,999.5C 1632.83,999.5 1566.17,999.5 1499.5,999.5C 1499.5,966.167 1499.5,932.833 1499.5,899.5 Z"/></g>
<g><path style="opacity:1" fill="#57d179" d="M 3199.5,899.5 C 3266.17,899.5 3332.83,899.5 3399.5,899.5C 3399.5,932.833 3399.5,966.167 3399.5,999.5C 3332.83,999.5 3266.17,999.5 3199.5,999.5C 3199.5,966.167 3199.5,932.833 3199.5,899.5 Z"/></g>
<g><path style="opacity:1" fill="#57d179" d="M 4199.5,899.5 C 4232.83,899.5 4266.17,899.5 4299.5,899.5C 4299.5,966.167 4299.5,1032.83 4299.5,1099.5C 4232.83,1099.5 4166.17,1099.5 4099.5,1099.5C 4099.5,1066.17 4099.5,1032.83 4099.5,999.5C 4132.83,999.5 4166.17,999.5 4199.5,999.5C 4199.5,966.167 4199.5,932.833 4199.5,899.5 Z"/></g>
<g><path style="opacity:1" fill="#57d179" d="M 999.5,999.5 C 999.5,1032.83 999.5,1066.17 999.5,1099.5C 932.833,1099.5 866.167,1099.5 799.5,1099.5C 799.5,1066.17 799.5,1032.83 799.5,999.5C 866.167,999.5 932.833,999.5 999.5,999.5 Z"/></g>
<g><path style="opacity:1" fill="#57d179" d="M 1699.5,999.5 C 1766.17,999.5 1832.83,999.5 1899.5,999.5C 1899.5,1032.83 1899.5,1066.17 1899.5,1099.5C 1832.83,1099.5 1766.17,1099.5 1699.5,1099.5C 1699.5,1066.17 1699.5,1032.83 1699.5,999.5 Z"/></g>
<g><path style="opacity:1" fill="#57d179" d="M 3399.5,999.5 C 3466.17,999.5 3532.83,999.5 3599.5,999.5C 3599.5,1032.83 3599.5,1066.17 3599.5,1099.5C 3532.83,1099.5 3466.17,1099.5 3399.5,1099.5C 3399.5,1066.17 3399.5,1032.83 3399.5,999.5 Z"/></g>
<g><path style="opacity:1" fill="#57d179" d="M -0.5,1099.5 C 66.1667,1099.5 132.833,1099.5 199.5,1099.5C 199.5,1132.83 199.5,1166.17 199.5,1199.5C 166.167,1199.5 132.833,1199.5 99.5,1199.5C 99.5,1532.83 99.5,1866.17 99.5,2199.5C 66.1667,2199.5 32.8333,2199.5 -0.5,2199.5C -0.5,1832.83 -0.5,1466.17 -0.5,1099.5 Z"/></g>
<g><path style="opacity:1" fill="#57d179" d="M 1899.5,1099.5 C 1966.17,1099.5 2032.83,1099.5 2099.5,1099.5C 2099.5,1132.83 2099.5,1166.17 2099.5,1199.5C 2032.83,1199.5 1966.17,1199.5 1899.5,1199.5C 1899.5,1166.17 1899.5,1132.83 1899.5,1099.5 Z"/></g>
<g><path style="opacity:1" fill="#57d179" d="M 4099.5,1099.5 C 4099.5,1132.83 4099.5,1166.17 4099.5,1199.5C 4032.83,1199.5 3966.17,1199.5 3899.5,1199.5C 3899.5,1166.17 3899.5,1132.83 3899.5,1099.5C 3966.17,1099.5 4032.83,1099.5 4099.5,1099.5 Z"/></g>
<g><path style="opacity:1" fill="#097827" d="M 4099.5,1099.5 C 4166.17,1099.5 4232.83,1099.5 4299.5,1099.5C 4299.5,1166.17 4299.5,1232.83 4299.5,1299.5C 4232.83,1299.5 4166.17,1299.5 4099.5,1299.5C 4099.5,1332.83 4099.5,1366.17 4099.5,1399.5C 4032.83,1399.5 3966.17,1399.5 3899.5,1399.5C 3899.5,1432.83 3899.5,1466.17 3899.5,1499.5C 3832.83,1499.5 3766.17,1499.5 3699.5,1499.5C 3632.83,1499.5 3566.17,1499.5 3499.5,1499.5C 3499.5,1466.17 3499.5,1432.83 3499.5,1399.5C 3566.17,1399.5 3632.83,1399.5 3699.5,1399.5C 3699.5,1366.17 3699.5,1332.83 3699.5,1299.5C 3766.17,1299.5 3832.83,1299.5 3899.5,1299.5C 3899.5,1266.17 3899.5,1232.83 3899.5,1199.5C 3966.17,1199.5 4032.83,1199.5 4099.5,1199.5C 4099.5,1166.17 4099.5,1132.83 4099.5,1099.5 Z"/></g>
<g><path style="opacity:1" fill="#0dab39" d="M 199.5,1199.5 C 199.5,1232.83 199.5,1266.17 199.5,1299.5C 266.167,1299.5 332.833,1299.5 399.5,1299.5C 399.5,1332.83 399.5,1366.17 399.5,1399.5C 466.167,1399.5 532.833,1399.5 599.5,1399.5C 599.5,1432.83 599.5,1466.17 599.5,1499.5C 666.167,1499.5 732.833,1499.5 799.5,1499.5C 799.5,1532.83 799.5,1566.17 799.5,1599.5C 866.167,1599.5 932.833,1599.5 999.5,1599.5C 999.5,1632.83 999.5,1666.17 999.5,1699.5C 1066.17,1699.5 1132.83,1699.5 1199.5,1699.5C 1199.5,1732.83 1199.5,1766.17 1199.5,1799.5C 1266.17,1799.5 1332.83,1799.5 1399.5,1799.5C 1399.5,1832.83 1399.5,1866.17 1399.5,1899.5C 1466.17,1899.5 1532.83,1899.5 1599.5,1899.5C 1599.5,1932.83 1599.5,1966.17 1599.5,1999.5C 1666.17,1999.5 1732.83,1999.5 1799.5,1999.5C 1799.5,2032.83 1799.5,2066.17 1799.5,2099.5C 1866.17,2099.5 1932.83,2099.5 1999.5,2099.5C 1999.5,2132.83 1999.5,2166.17 1999.5,2199.5C 2066.17,2199.5 2132.83,2199.5 2199.5,2199.5C 2199.5,2232.83 2199.5,2266.17 2199.5,2299.5C 2232.83,2299.5 2266.17,2299.5 2299.5,2299.5C 2299.5,2632.83 2299.5,2966.17 2299.5,3299.5C 2266.17,3299.5 2232.83,3299.5 2199.5,3299.5C 2199.5,3266.17 2199.5,3232.83 2199.5,3199.5C 2132.83,3199.5 2066.17,3199.5 1999.5,3199.5C 1999.5,3166.17 1999.5,3132.83 1999.5,3099.5C 1932.83,3099.5 1866.17,3099.5 1799.5,3099.5C 1799.5,3066.17 1799.5,3032.83 1799.5,2999.5C 1732.83,2999.5 1666.17,2999.5 1599.5,2999.5C 1599.5,2966.17 1599.5,2932.83 1599.5,2899.5C 1532.83,2899.5 1466.17,2899.5 1399.5,2899.5C 1399.5,2866.17 1399.5,2832.83 1399.5,2799.5C 1399.5,2732.83 1399.5,2666.17 1399.5,2599.5C 1432.83,2599.5 1466.17,2599.5 1499.5,2599.5C 1499.5,2566.17 1499.5,2532.83 1499.5,2499.5C 1499.5,2466.17 1499.5,2432.83 1499.5,2399.5C 1532.83,2399.5 1566.17,2399.5 1599.5,2399.5C 1599.5,2366.17 1599.5,2332.83 1599.5,2299.5C 1532.83,2299.5 1466.17,2299.5 1399.5,2299.5C 1399.5,2266.17 1399.5,2232.83 1399.5,2199.5C 1332.83,2199.5 1266.17,2199.5 1199.5,2199.5C 1199.5,2166.17 1199.5,2132.83 1199.5,2099.5C 1132.83,2099.5 1066.17,2099.5 999.5,2099.5C 999.5,2066.17 999.5,2032.83 999.5,1999.5C 966.167,1999.5 932.833,1999.5 899.5,1999.5C 866.167,1999.5 832.833,1999.5 799.5,1999.5C 799.5,2099.5 799.5,2199.5 799.5,2299.5C 832.833,2299.5 866.167,2299.5 899.5,2299.5C 899.5,2399.5 899.5,2499.5 899.5,2599.5C 866.167,2599.5 832.833,2599.5 799.5,2599.5C 799.5,2566.17 799.5,2532.83 799.5,2499.5C 732.833,2499.5 666.167,2499.5 599.5,2499.5C 599.5,2466.17 599.5,2432.83 599.5,2399.5C 532.833,2399.5 466.167,2399.5 399.5,2399.5C 399.5,2366.17 399.5,2332.83 399.5,2299.5C 332.833,2299.5 266.167,2299.5 199.5,2299.5C 199.5,2266.17 199.5,2232.83 199.5,2199.5C 166.167,2199.5 132.833,2199.5 99.5,2199.5C 99.5,1866.17 99.5,1532.83 99.5,1199.5C 132.833,1199.5 166.167,1199.5 199.5,1199.5 Z"/></g>
<g><path style="opacity:1" fill="#57d179" d="M 199.5,1199.5 C 266.167,1199.5 332.833,1199.5 399.5,1199.5C 399.5,1232.83 399.5,1266.17 399.5,1299.5C 332.833,1299.5 266.167,1299.5 199.5,1299.5C 199.5,1266.17 199.5,1232.83 199.5,1199.5 Z"/></g>
<g><path style="opacity:1" fill="#57d179" d="M 2099.5,1199.5 C 2166.17,1199.5 2232.83,1199.5 2299.5,1199.5C 2299.5,1232.83 2299.5,1266.17 2299.5,1299.5C 2232.83,1299.5 2166.17,1299.5 2099.5,1299.5C 2099.5,1266.17 2099.5,1232.83 2099.5,1199.5 Z"/></g>
<g><path style="opacity:1" fill="#57d179" d="M 3899.5,1199.5 C 3899.5,1232.83 3899.5,1266.17 3899.5,1299.5C 3832.83,1299.5 3766.17,1299.5 3699.5,1299.5C 3699.5,1266.17 3699.5,1232.83 3699.5,1199.5C 3766.17,1199.5 3832.83,1199.5 3899.5,1199.5 Z"/></g>
<g><path style="opacity:1" fill="#57d179" d="M 399.5,1299.5 C 466.167,1299.5 532.833,1299.5 599.5,1299.5C 599.5,1332.83 599.5,1366.17 599.5,1399.5C 532.833,1399.5 466.167,1399.5 399.5,1399.5C 399.5,1366.17 399.5,1332.83 399.5,1299.5 Z"/></g>
<g><path style="opacity:1" fill="#57d179" d="M 2299.5,1299.5 C 2366.17,1299.5 2432.83,1299.5 2499.5,1299.5C 2499.5,1332.83 2499.5,1366.17 2499.5,1399.5C 2432.83,1399.5 2366.17,1399.5 2299.5,1399.5C 2299.5,1366.17 2299.5,1332.83 2299.5,1299.5 Z"/></g>
<g><path style="opacity:1" fill="#57d179" d="M 3699.5,1299.5 C 3699.5,1332.83 3699.5,1366.17 3699.5,1399.5C 3632.83,1399.5 3566.17,1399.5 3499.5,1399.5C 3499.5,1366.17 3499.5,1332.83 3499.5,1299.5C 3566.17,1299.5 3632.83,1299.5 3699.5,1299.5 Z"/></g>
<g><path style="opacity:1" fill="#095e21" d="M 4299.5,1299.5 C 4299.5,1332.83 4299.5,1366.17 4299.5,1399.5C 4232.83,1399.5 4166.17,1399.5 4099.5,1399.5C 4099.5,1366.17 4099.5,1332.83 4099.5,1299.5C 4166.17,1299.5 4232.83,1299.5 4299.5,1299.5 Z"/></g>
<g><path style="opacity:1" fill="#57d179" d="M 599.5,1399.5 C 666.167,1399.5 732.833,1399.5 799.5,1399.5C 799.5,1432.83 799.5,1466.17 799.5,1499.5C 732.833,1499.5 666.167,1499.5 599.5,1499.5C 599.5,1466.17 599.5,1432.83 599.5,1399.5 Z"/></g>
<g><path style="opacity:1" fill="#57d179" d="M 2499.5,1399.5 C 2566.17,1399.5 2632.83,1399.5 2699.5,1399.5C 2699.5,1432.83 2699.5,1466.17 2699.5,1499.5C 2632.83,1499.5 2566.17,1499.5 2499.5,1499.5C 2499.5,1466.17 2499.5,1432.83 2499.5,1399.5 Z"/></g>
<g><path style="opacity:1" fill="#57d179" d="M 3499.5,1399.5 C 3499.5,1432.83 3499.5,1466.17 3499.5,1499.5C 3432.83,1499.5 3366.17,1499.5 3299.5,1499.5C 3299.5,1466.17 3299.5,1432.83 3299.5,1399.5C 3366.17,1399.5 3432.83,1399.5 3499.5,1399.5 Z"/></g>
<g><path style="opacity:1" fill="#095e21" d="M 4099.5,1399.5 C 4099.5,1432.83 4099.5,1466.17 4099.5,1499.5C 4032.83,1499.5 3966.17,1499.5 3899.5,1499.5C 3899.5,1466.17 3899.5,1432.83 3899.5,1399.5C 3966.17,1399.5 4032.83,1399.5 4099.5,1399.5 Z"/></g>
<g><path style="opacity:1" fill="#076722" d="M 4099.5,1399.5 C 4166.17,1399.5 4232.83,1399.5 4299.5,1399.5C 4332.83,1399.5 4366.17,1399.5 4399.5,1399.5C 4399.5,1432.83 4399.5,1466.17 4399.5,1499.5C 4332.83,1499.5 4266.17,1499.5 4199.5,1499.5C 4199.5,1532.83 4199.5,1566.17 4199.5,1599.5C 4132.83,1599.5 4066.17,1599.5 3999.5,1599.5C 3999.5,1632.83 3999.5,1666.17 3999.5,1699.5C 3932.83,1699.5 3866.17,1699.5 3799.5,1699.5C 3799.5,1732.83 3799.5,1766.17 3799.5,1799.5C 3766.17,1799.5 3732.83,1799.5 3699.5,1799.5C 3699.5,1732.83 3699.5,1666.17 3699.5,1599.5C 3766.17,1599.5 3832.83,1599.5 3899.5,1599.5C 3899.5,1566.17 3899.5,1532.83 3899.5,1499.5C 3966.17,1499.5 4032.83,1499.5 4099.5,1499.5C 4099.5,1466.17 4099.5,1432.83 4099.5,1399.5 Z"/></g>
<g><path style="opacity:1" fill="#3d9254" d="M 4399.5,1399.5 C 4432.83,1399.5 4466.17,1399.5 4499.5,1399.5C 4499.5,1432.83 4499.5,1466.17 4499.5,1499.5C 4466.17,1499.5 4432.83,1499.5 4399.5,1499.5C 4399.5,1466.17 4399.5,1432.83 4399.5,1399.5 Z"/></g>
<g><path style="opacity:1" fill="#57d179" d="M 799.5,1499.5 C 866.167,1499.5 932.833,1499.5 999.5,1499.5C 999.5,1532.83 999.5,1566.17 999.5,1599.5C 932.833,1599.5 866.167,1599.5 799.5,1599.5C 799.5,1566.17 799.5,1532.83 799.5,1499.5 Z"/></g>
<g><path style="opacity:1" fill="#57d179" d="M 2699.5,1499.5 C 2766.17,1499.5 2832.83,1499.5 2899.5,1499.5C 2899.5,1532.83 2899.5,1566.17 2899.5,1599.5C 2832.83,1599.5 2766.17,1599.5 2699.5,1599.5C 2699.5,1566.17 2699.5,1532.83 2699.5,1499.5 Z"/></g>
<g><path style="opacity:1" fill="#57d179" d="M 3499.5,1499.5 C 3566.17,1499.5 3632.83,1499.5 3699.5,1499.5C 3699.5,1532.83 3699.5,1566.17 3699.5,1599.5C 3632.83,1599.5 3566.17,1599.5 3499.5,1599.5C 3499.5,1566.17 3499.5,1532.83 3499.5,1499.5 Z"/></g>
<g><path style="opacity:1" fill="#095e21" d="M 3699.5,1499.5 C 3766.17,1499.5 3832.83,1499.5 3899.5,1499.5C 3899.5,1532.83 3899.5,1566.17 3899.5,1599.5C 3832.83,1599.5 3766.17,1599.5 3699.5,1599.5C 3699.5,1566.17 3699.5,1532.83 3699.5,1499.5 Z"/></g>
<g><path style="opacity:1" fill="#3d9254" d="M 4399.5,1499.5 C 4399.5,1532.83 4399.5,1566.17 4399.5,1599.5C 4332.83,1599.5 4266.17,1599.5 4199.5,1599.5C 4199.5,1566.17 4199.5,1532.83 4199.5,1499.5C 4266.17,1499.5 4332.83,1499.5 4399.5,1499.5 Z"/></g>
<g><path style="opacity:1" fill="#097827" d="M 4399.5,1499.5 C 4432.83,1499.5 4466.17,1499.5 4499.5,1499.5C 4566.17,1499.5 4632.83,1499.5 4699.5,1499.5C 4699.5,1732.83 4699.5,1966.17 4699.5,2199.5C 4632.83,2199.5 4566.17,2199.5 4499.5,2199.5C 4499.5,2232.83 4499.5,2266.17 4499.5,2299.5C 4432.83,2299.5 4366.17,2299.5 4299.5,2299.5C 4299.5,2332.83 4299.5,2366.17 4299.5,2399.5C 4266.17,2399.5 4232.83,2399.5 4199.5,2399.5C 4166.17,2399.5 4132.83,2399.5 4099.5,2399.5C 4099.5,2366.17 4099.5,2332.83 4099.5,2299.5C 4099.5,2266.17 4099.5,2232.83 4099.5,2199.5C 4032.83,2199.5 3966.17,2199.5 3899.5,2199.5C 3899.5,2232.83 3899.5,2266.17 3899.5,2299.5C 3832.83,2299.5 3766.17,2299.5 3699.5,2299.5C 3699.5,2332.83 3699.5,2366.17 3699.5,2399.5C 3632.83,2399.5 3566.17,2399.5 3499.5,2399.5C 3499.5,2432.83 3499.5,2466.17 3499.5,2499.5C 3432.83,2499.5 3366.17,2499.5 3299.5,2499.5C 3299.5,2532.83 3299.5,2566.17 3299.5,2599.5C 3232.83,2599.5 3166.17,2599.5 3099.5,2599.5C 3099.5,2632.83 3099.5,2666.17 3099.5,2699.5C 3032.83,2699.5 2966.17,2699.5 2899.5,2699.5C 2899.5,2799.5 2899.5,2899.5 2899.5,2999.5C 2899.5,3032.83 2899.5,3066.17 2899.5,3099.5C 2832.83,3099.5 2766.17,3099.5 2699.5,3099.5C 2699.5,3132.83 2699.5,3166.17 2699.5,3199.5C 2632.83,3199.5 2566.17,3199.5 2499.5,3199.5C 2499.5,3232.83 2499.5,3266.17 2499.5,3299.5C 2466.17,3299.5 2432.83,3299.5 2399.5,3299.5C 2399.5,2966.17 2399.5,2632.83 2399.5,2299.5C 2432.83,2299.5 2466.17,2299.5 2499.5,2299.5C 2499.5,2266.17 2499.5,2232.83 2499.5,2199.5C 2566.17,2199.5 2632.83,2199.5 2699.5,2199.5C 2699.5,2166.17 2699.5,2132.83 2699.5,2099.5C 2766.17,2099.5 2832.83,2099.5 2899.5,2099.5C 2899.5,2066.17 2899.5,2032.83 2899.5,1999.5C 2966.17,1999.5 3032.83,1999.5 3099.5,1999.5C 3099.5,1966.17 3099.5,1932.83 3099.5,1899.5C 3166.17,1899.5 3232.83,1899.5 3299.5,1899.5C 3299.5,1866.17 3299.5,1832.83 3299.5,1799.5C 3366.17,1799.5 3432.83,1799.5 3499.5,1799.5C 3499.5,1766.17 3499.5,1732.83 3499.5,1699.5C 3532.83,1699.5 3566.17,1699.5 3599.5,1699.5C 3599.5,1766.17 3599.5,1832.83 3599.5,1899.5C 3666.17,1899.5 3732.83,1899.5 3799.5,1899.5C 3799.5,1866.17 3799.5,1832.83 3799.5,1799.5C 3866.17,1799.5 3932.83,1799.5 3999.5,1799.5C 3999.5,1766.17 3999.5,1732.83 3999.5,1699.5C 4066.17,1699.5 4132.83,1699.5 4199.5,1699.5C 4199.5,1666.17 4199.5,1632.83 4199.5,1599.5C 4266.17,1599.5 4332.83,1599.5 4399.5,1599.5C 4399.5,1566.17 4399.5,1532.83 4399.5,1499.5 Z"/></g>
<g><path style="opacity:1" fill="#57d179" d="M 999.5,1599.5 C 1066.17,1599.5 1132.83,1599.5 1199.5,1599.5C 1199.5,1632.83 1199.5,1666.17 1199.5,1699.5C 1132.83,1699.5 1066.17,1699.5 999.5,1699.5C 999.5,1666.17 999.5,1632.83 999.5,1599.5 Z"/></g>
<g><path style="opacity:1" fill="#3d9254" d="M 3499.5,1599.5 C 3566.17,1599.5 3632.83,1599.5 3699.5,1599.5C 3699.5,1666.17 3699.5,1732.83 3699.5,1799.5C 3732.83,1799.5 3766.17,1799.5 3799.5,1799.5C 3799.5,1832.83 3799.5,1866.17 3799.5,1899.5C 3732.83,1899.5 3666.17,1899.5 3599.5,1899.5C 3599.5,1832.83 3599.5,1766.17 3599.5,1699.5C 3566.17,1699.5 3532.83,1699.5 3499.5,1699.5C 3499.5,1666.17 3499.5,1632.83 3499.5,1599.5 Z"/></g>
<g><path style="opacity:1" fill="#3d9254" d="M 4199.5,1599.5 C 4199.5,1632.83 4199.5,1666.17 4199.5,1699.5C 4132.83,1699.5 4066.17,1699.5 3999.5,1699.5C 3999.5,1666.17 3999.5,1632.83 3999.5,1599.5C 4066.17,1599.5 4132.83,1599.5 4199.5,1599.5 Z"/></g>
<g><path style="opacity:1" fill="#57d179" d="M 1199.5,1699.5 C 1266.17,1699.5 1332.83,1699.5 1399.5,1699.5C 1399.5,1732.83 1399.5,1766.17 1399.5,1799.5C 1332.83,1799.5 1266.17,1799.5 1199.5,1799.5C 1199.5,1766.17 1199.5,1732.83 1199.5,1699.5 Z"/></g>
<g><path style="opacity:1" fill="#3d9254" d="M 3499.5,1699.5 C 3499.5,1732.83 3499.5,1766.17 3499.5,1799.5C 3432.83,1799.5 3366.17,1799.5 3299.5,1799.5C 3299.5,1766.17 3299.5,1732.83 3299.5,1699.5C 3366.17,1699.5 3432.83,1699.5 3499.5,1699.5 Z"/></g>
<g><path style="opacity:1" fill="#3d9254" d="M 3999.5,1699.5 C 3999.5,1732.83 3999.5,1766.17 3999.5,1799.5C 3932.83,1799.5 3866.17,1799.5 3799.5,1799.5C 3799.5,1766.17 3799.5,1732.83 3799.5,1699.5C 3866.17,1699.5 3932.83,1699.5 3999.5,1699.5 Z"/></g>
<g><path style="opacity:1" fill="#57d179" d="M 1399.5,1799.5 C 1466.17,1799.5 1532.83,1799.5 1599.5,1799.5C 1599.5,1832.83 1599.5,1866.17 1599.5,1899.5C 1532.83,1899.5 1466.17,1899.5 1399.5,1899.5C 1399.5,1866.17 1399.5,1832.83 1399.5,1799.5 Z"/></g>
<g><path style="opacity:1" fill="#3d9254" d="M 3299.5,1799.5 C 3299.5,1832.83 3299.5,1866.17 3299.5,1899.5C 3232.83,1899.5 3166.17,1899.5 3099.5,1899.5C 3099.5,1866.17 3099.5,1832.83 3099.5,1799.5C 3166.17,1799.5 3232.83,1799.5 3299.5,1799.5 Z"/></g>
<g><path style="opacity:1" fill="#57d179" d="M 799.5,1999.5 C 766.167,1999.5 732.833,1999.5 699.5,1999.5C 699.5,1966.17 699.5,1932.83 699.5,1899.5C 732.833,1899.5 766.167,1899.5 799.5,1899.5C 799.5,1932.83 799.5,1966.17 799.5,1999.5 Z"/></g>
<g><path style="opacity:1" fill="#57d179" d="M 1599.5,1899.5 C 1666.17,1899.5 1732.83,1899.5 1799.5,1899.5C 1799.5,1932.83 1799.5,1966.17 1799.5,1999.5C 1732.83,1999.5 1666.17,1999.5 1599.5,1999.5C 1599.5,1966.17 1599.5,1932.83 1599.5,1899.5 Z"/></g>
<g><path style="opacity:1" fill="#3d9254" d="M 3099.5,1899.5 C 3099.5,1932.83 3099.5,1966.17 3099.5,1999.5C 3032.83,1999.5 2966.17,1999.5 2899.5,1999.5C 2899.5,1966.17 2899.5,1932.83 2899.5,1899.5C 2966.17,1899.5 3032.83,1899.5 3099.5,1899.5 Z"/></g>
<g><path style="opacity:1" fill="#57d179" d="M 799.5,1999.5 C 832.833,1999.5 866.167,1999.5 899.5,1999.5C 899.5,2099.5 899.5,2199.5 899.5,2299.5C 866.167,2299.5 832.833,2299.5 799.5,2299.5C 799.5,2199.5 799.5,2099.5 799.5,1999.5 Z"/></g>
<g><path style="opacity:1" fill="#076722" d="M 899.5,1999.5 C 932.833,1999.5 966.167,1999.5 999.5,1999.5C 999.5,2032.83 999.5,2066.17 999.5,2099.5C 1066.17,2099.5 1132.83,2099.5 1199.5,2099.5C 1199.5,2132.83 1199.5,2166.17 1199.5,2199.5C 1266.17,2199.5 1332.83,2199.5 1399.5,2199.5C 1399.5,2232.83 1399.5,2266.17 1399.5,2299.5C 1466.17,2299.5 1532.83,2299.5 1599.5,2299.5C 1599.5,2332.83 1599.5,2366.17 1599.5,2399.5C 1566.17,2399.5 1532.83,2399.5 1499.5,2399.5C 1499.5,2432.83 1499.5,2466.17 1499.5,2499.5C 1466.17,2499.5 1432.83,2499.5 1399.5,2499.5C 1399.5,2532.83 1399.5,2566.17 1399.5,2599.5C 1332.83,2599.5 1266.17,2599.5 1199.5,2599.5C 1199.5,2632.83 1199.5,2666.17 1199.5,2699.5C 1166.17,2699.5 1132.83,2699.5 1099.5,2699.5C 1099.5,2666.17 1099.5,2632.83 1099.5,2599.5C 1066.17,2599.5 1032.83,2599.5 999.5,2599.5C 999.5,2499.5 999.5,2399.5 999.5,2299.5C 966.167,2299.5 932.833,2299.5 899.5,2299.5C 899.5,2199.5 899.5,2099.5 899.5,1999.5 Z"/></g>
<g><path style="opacity:1" fill="#57d179" d="M 1799.5,1999.5 C 1866.17,1999.5 1932.83,1999.5 1999.5,1999.5C 1999.5,2032.83 1999.5,2066.17 1999.5,2099.5C 1932.83,2099.5 1866.17,2099.5 1799.5,2099.5C 1799.5,2066.17 1799.5,2032.83 1799.5,1999.5 Z"/></g>
<g><path style="opacity:1" fill="#3d9254" d="M 2899.5,1999.5 C 2899.5,2032.83 2899.5,2066.17 2899.5,2099.5C 2832.83,2099.5 2766.17,2099.5 2699.5,2099.5C 2699.5,2066.17 2699.5,2032.83 2699.5,1999.5C 2766.17,1999.5 2832.83,1999.5 2899.5,1999.5 Z"/></g>
<g><path style="opacity:1" fill="#57d179" d="M 1999.5,2099.5 C 2066.17,2099.5 2132.83,2099.5 2199.5,2099.5C 2199.5,2132.83 2199.5,2166.17 2199.5,2199.5C 2132.83,2199.5 2066.17,2199.5 1999.5,2199.5C 1999.5,2166.17 1999.5,2132.83 1999.5,2099.5 Z"/></g>
<g><path style="opacity:1" fill="#3d9254" d="M 2699.5,2099.5 C 2699.5,2132.83 2699.5,2166.17 2699.5,2199.5C 2632.83,2199.5 2566.17,2199.5 2499.5,2199.5C 2499.5,2166.17 2499.5,2132.83 2499.5,2099.5C 2566.17,2099.5 2632.83,2099.5 2699.5,2099.5 Z"/></g>
<g><path style="opacity:1" fill="#8b7453" d="M -0.5,2199.5 C 32.8333,2199.5 66.1667,2199.5 99.5,2199.5C 99.5,2832.83 99.5,3466.17 99.5,4099.5C 66.1667,4099.5 32.8333,4099.5 -0.5,4099.5C -0.5,3466.17 -0.5,2832.83 -0.5,2199.5 Z"/></g>
<g><path style="opacity:1" fill="#725732" d="M 99.5,2199.5 C 132.833,2199.5 166.167,2199.5 199.5,2199.5C 199.5,2232.83 199.5,2266.17 199.5,2299.5C 266.167,2299.5 332.833,2299.5 399.5,2299.5C 399.5,2332.83 399.5,2366.17 399.5,2399.5C 466.167,2399.5 532.833,2399.5 599.5,2399.5C 599.5,2432.83 599.5,2466.17 599.5,2499.5C 666.167,2499.5 732.833,2499.5 799.5,2499.5C 799.5,2532.83 799.5,2566.17 799.5,2599.5C 832.833,2599.5 866.167,2599.5 899.5,2599.5C 932.833,2599.5 966.167,2599.5 999.5,2599.5C 999.5,2632.83 999.5,2666.17 999.5,2699.5C 999.5,2766.17 999.5,2832.83 999.5,2899.5C 1032.83,2899.5 1066.17,2899.5 1099.5,2899.5C 1099.5,2999.5 1099.5,3099.5 1099.5,3199.5C 1132.83,3199.5 1166.17,3199.5 1199.5,3199.5C 1199.5,3132.83 1199.5,3066.17 1199.5,2999.5C 1232.83,2999.5 1266.17,2999.5 1299.5,2999.5C 1299.5,2932.83 1299.5,2866.17 1299.5,2799.5C 1332.83,2799.5 1366.17,2799.5 1399.5,2799.5C 1399.5,2832.83 1399.5,2866.17 1399.5,2899.5C 1466.17,2899.5 1532.83,2899.5 1599.5,2899.5C 1599.5,2932.83 1599.5,2966.17 1599.5,2999.5C 1666.17,2999.5 1732.83,2999.5 1799.5,2999.5C 1799.5,3032.83 1799.5,3066.17 1799.5,3099.5C 1866.17,3099.5 1932.83,3099.5 1999.5,3099.5C 1999.5,3132.83 1999.5,3166.17 1999.5,3199.5C 2066.17,3199.5 2132.83,3199.5 2199.5,3199.5C 2199.5,3232.83 2199.5,3266.17 2199.5,3299.5C 2232.83,3299.5 2266.17,3299.5 2299.5,3299.5C 2299.5,3932.83 2299.5,4566.17 2299.5,5199.5C 2266.17,5199.5 2232.83,5199.5 2199.5,5199.5C 2199.5,5166.17 2199.5,5132.83 2199.5,5099.5C 2132.83,5099.5 2066.17,5099.5 1999.5,5099.5C 1999.5,5066.17 1999.5,5032.83 1999.5,4999.5C 1932.83,4999.5 1866.17,4999.5 1799.5,4999.5C 1799.5,4766.17 1799.5,4532.83 1799.5,4299.5C 1766.17,4299.5 1732.83,4299.5 1699.5,4299.5C 1699.5,4266.17 1699.5,4232.83 1699.5,4199.5C 1732.83,4199.5 1766.17,4199.5 1799.5,4199.5C 1799.5,3999.5 1799.5,3799.5 1799.5,3599.5C 1799.5,3532.83 1799.5,3466.17 1799.5,3399.5C 1766.17,3399.5 1732.83,3399.5 1699.5,3399.5C 1699.5,3466.17 1699.5,3532.83 1699.5,3599.5C 1666.17,3599.5 1632.83,3599.5 1599.5,3599.5C 1599.5,3666.17 1599.5,3732.83 1599.5,3799.5C 1566.17,3799.5 1532.83,3799.5 1499.5,3799.5C 1499.5,3866.17 1499.5,3932.83 1499.5,3999.5C 1466.17,3999.5 1432.83,3999.5 1399.5,3999.5C 1399.5,4066.17 1399.5,4132.83 1399.5,4199.5C 1366.17,4199.5 1332.83,4199.5 1299.5,4199.5C 1299.5,4266.17 1299.5,4332.83 1299.5,4399.5C 1266.17,4399.5 1232.83,4399.5 1199.5,4399.5C 1199.5,4466.17 1199.5,4532.83 1199.5,4599.5C 1166.17,4599.5 1132.83,4599.5 1099.5,4599.5C 1099.5,4499.5 1099.5,4399.5 1099.5,4299.5C 1066.17,4299.5 1032.83,4299.5 999.5,4299.5C 999.5,4232.83 999.5,4166.17 999.5,4099.5C 932.833,4099.5 866.167,4099.5 799.5,4099.5C 799.5,4066.17 799.5,4032.83 799.5,3999.5C 832.833,3999.5 866.167,3999.5 899.5,3999.5C 899.5,3899.5 899.5,3799.5 899.5,3699.5C 866.167,3699.5 832.833,3699.5 799.5,3699.5C 799.5,3599.5 799.5,3499.5 799.5,3399.5C 766.167,3399.5 732.833,3399.5 699.5,3399.5C 699.5,3299.5 699.5,3199.5 699.5,3099.5C 666.167,3099.5 632.833,3099.5 599.5,3099.5C 599.5,2932.83 599.5,2766.17 599.5,2599.5C 566.167,2599.5 532.833,2599.5 499.5,2599.5C 499.5,3166.17 499.5,3732.83 499.5,4299.5C 466.167,4299.5 432.833,4299.5 399.5,4299.5C 399.5,4266.17 399.5,4232.83 399.5,4199.5C 332.833,4199.5 266.167,4199.5 199.5,4199.5C 199.5,4166.17 199.5,4132.83 199.5,4099.5C 166.167,4099.5 132.833,4099.5 99.5,4099.5C 99.5,3466.17 99.5,2832.83 99.5,2199.5 Z"/></g>
<g><path style="opacity:1" fill="#57d179" d="M 2199.5,2199.5 C 2266.17,2199.5 2332.83,2199.5 2399.5,2199.5C 2399.5,2232.83 2399.5,2266.17 2399.5,2299.5C 2399.5,2632.83 2399.5,2966.17 2399.5,3299.5C 2366.17,3299.5 2332.83,3299.5 2299.5,3299.5C 2299.5,2966.17 2299.5,2632.83 2299.5,2299.5C 2266.17,2299.5 2232.83,2299.5 2199.5,2299.5C 2199.5,2266.17 2199.5,2232.83 2199.5,2199.5 Z"/></g>
<g><path style="opacity:1" fill="#3d9254" d="M 2399.5,2199.5 C 2432.83,2199.5 2466.17,2199.5 2499.5,2199.5C 2499.5,2232.83 2499.5,2266.17 2499.5,2299.5C 2466.17,2299.5 2432.83,2299.5 2399.5,2299.5C 2399.5,2266.17 2399.5,2232.83 2399.5,2199.5 Z"/></g>
<g><path style="opacity:1" fill="#3d9254" d="M 4099.5,2299.5 C 4032.83,2299.5 3966.17,2299.5 3899.5,2299.5C 3899.5,2266.17 3899.5,2232.83 3899.5,2199.5C 3966.17,2199.5 4032.83,2199.5 4099.5,2199.5C 4099.5,2232.83 4099.5,2266.17 4099.5,2299.5 Z"/></g>
<g><path style="opacity:1" fill="#4f3d22" d="M 4699.5,2199.5 C 4699.5,2332.83 4699.5,2466.17 4699.5,2599.5C 4632.83,2599.5 4566.17,2599.5 4499.5,2599.5C 4499.5,2632.83 4499.5,2666.17 4499.5,2699.5C 4432.83,2699.5 4366.17,2699.5 4299.5,2699.5C 4299.5,2732.83 4299.5,2766.17 4299.5,2799.5C 4266.17,2799.5 4232.83,2799.5 4199.5,2799.5C 4199.5,2666.17 4199.5,2532.83 4199.5,2399.5C 4232.83,2399.5 4266.17,2399.5 4299.5,2399.5C 4299.5,2366.17 4299.5,2332.83 4299.5,2299.5C 4366.17,2299.5 4432.83,2299.5 4499.5,2299.5C 4499.5,2266.17 4499.5,2232.83 4499.5,2199.5C 4566.17,2199.5 4632.83,2199.5 4699.5,2199.5 Z"/></g>
<g><path style="opacity:1" fill="#57d179" d="M 899.5,2299.5 C 932.833,2299.5 966.167,2299.5 999.5,2299.5C 999.5,2399.5 999.5,2499.5 999.5,2599.5C 966.167,2599.5 932.833,2599.5 899.5,2599.5C 899.5,2499.5 899.5,2399.5 899.5,2299.5 Z"/></g>
<g><path style="opacity:1" fill="#3d9254" d="M 3899.5,2299.5 C 3899.5,2332.83 3899.5,2366.17 3899.5,2399.5C 3832.83,2399.5 3766.17,2399.5 3699.5,2399.5C 3699.5,2366.17 3699.5,2332.83 3699.5,2299.5C 3766.17,2299.5 3832.83,2299.5 3899.5,2299.5 Z"/></g>
<g><path style="opacity:1" fill="#2f2414" d="M 3899.5,2299.5 C 3966.17,2299.5 4032.83,2299.5 4099.5,2299.5C 4099.5,2332.83 4099.5,2366.17 4099.5,2399.5C 4099.5,2466.17 4099.5,2532.83 4099.5,2599.5C 4032.83,2599.5 3966.17,2599.5 3899.5,2599.5C 3899.5,2566.17 3899.5,2532.83 3899.5,2499.5C 3832.83,2499.5 3766.17,2499.5 3699.5,2499.5C 3699.5,2466.17 3699.5,2432.83 3699.5,2399.5C 3766.17,2399.5 3832.83,2399.5 3899.5,2399.5C 3899.5,2366.17 3899.5,2332.83 3899.5,2299.5 Z"/></g>
<g><path style="opacity:1" fill="#3d9254" d="M 3699.5,2399.5 C 3699.5,2432.83 3699.5,2466.17 3699.5,2499.5C 3632.83,2499.5 3566.17,2499.5 3499.5,2499.5C 3499.5,2466.17 3499.5,2432.83 3499.5,2399.5C 3566.17,2399.5 3632.83,2399.5 3699.5,2399.5 Z"/></g>
<g><path style="opacity:1" fill="#615139" d="M 4099.5,2399.5 C 4132.83,2399.5 4166.17,2399.5 4199.5,2399.5C 4199.5,2532.83 4199.5,2666.17 4199.5,2799.5C 4166.17,2799.5 4132.83,2799.5 4099.5,2799.5C 4099.5,2766.17 4099.5,2732.83 4099.5,2699.5C 4099.5,2666.17 4099.5,2632.83 4099.5,2599.5C 4099.5,2532.83 4099.5,2466.17 4099.5,2399.5 Z"/></g>
<g><path style="opacity:1" fill="#44341d" d="M 1499.5,2499.5 C 1499.5,2532.83 1499.5,2566.17 1499.5,2599.5C 1466.17,2599.5 1432.83,2599.5 1399.5,2599.5C 1399.5,2566.17 1399.5,2532.83 1399.5,2499.5C 1432.83,2499.5 1466.17,2499.5 1499.5,2499.5 Z"/></g>
<g><path style="opacity:1" fill="#3d9254" d="M 3499.5,2499.5 C 3499.5,2532.83 3499.5,2566.17 3499.5,2599.5C 3432.83,2599.5 3366.17,2599.5 3299.5,2599.5C 3299.5,2566.17 3299.5,2532.83 3299.5,2499.5C 3366.17,2499.5 3432.83,2499.5 3499.5,2499.5 Z"/></g>
<g><path style="opacity:1" fill="#2f2414" d="M 3499.5,2499.5 C 3566.17,2499.5 3632.83,2499.5 3699.5,2499.5C 3699.5,2532.83 3699.5,2566.17 3699.5,2599.5C 3766.17,2599.5 3832.83,2599.5 3899.5,2599.5C 3899.5,2632.83 3899.5,2666.17 3899.5,2699.5C 3966.17,2699.5 4032.83,2699.5 4099.5,2699.5C 4099.5,2732.83 4099.5,2766.17 4099.5,2799.5C 4132.83,2799.5 4166.17,2799.5 4199.5,2799.5C 4232.83,2799.5 4266.17,2799.5 4299.5,2799.5C 4299.5,2832.83 4299.5,2866.17 4299.5,2899.5C 4366.17,2899.5 4432.83,2899.5 4499.5,2899.5C 4499.5,2932.83 4499.5,2966.17 4499.5,2999.5C 4432.83,2999.5 4366.17,2999.5 4299.5,2999.5C 4299.5,3032.83 4299.5,3066.17 4299.5,3099.5C 4232.83,3099.5 4166.17,3099.5 4099.5,3099.5C 4099.5,3066.17 4099.5,3032.83 4099.5,2999.5C 4032.83,2999.5 3966.17,2999.5 3899.5,2999.5C 3899.5,2966.17 3899.5,2932.83 3899.5,2899.5C 3832.83,2899.5 3766.17,2899.5 3699.5,2899.5C 3699.5,2866.17 3699.5,2832.83 3699.5,2799.5C 3632.83,2799.5 3566.17,2799.5 3499.5,2799.5C 3499.5,2766.17 3499.5,2732.83 3499.5,2699.5C 3432.83,2699.5 3366.17,2699.5 3299.5,2699.5C 3299.5,2666.17 3299.5,2632.83 3299.5,2599.5C 3366.17,2599.5 3432.83,2599.5 3499.5,2599.5C 3499.5,2566.17 3499.5,2532.83 3499.5,2499.5 Z"/></g>
<g><path style="opacity:1" fill="#4f3d22" d="M 3699.5,2499.5 C 3766.17,2499.5 3832.83,2499.5 3899.5,2499.5C 3899.5,2532.83 3899.5,2566.17 3899.5,2599.5C 3832.83,2599.5 3766.17,2599.5 3699.5,2599.5C 3699.5,2566.17 3699.5,2532.83 3699.5,2499.5 Z"/></g>
<g><path style="opacity:1" fill="#8b7453" d="M 599.5,3099.5 C 599.5,3432.83 599.5,3766.17 599.5,4099.5C 599.5,4132.83 599.5,4166.17 599.5,4199.5C 599.5,4232.83 599.5,4266.17 599.5,4299.5C 566.167,4299.5 532.833,4299.5 499.5,4299.5C 499.5,3732.83 499.5,3166.17 499.5,2599.5C 532.833,2599.5 566.167,2599.5 599.5,2599.5C 599.5,2766.17 599.5,2932.83 599.5,3099.5 Z"/></g>
<g><path style="opacity:1" fill="#57d179" d="M 999.5,2599.5 C 1032.83,2599.5 1066.17,2599.5 1099.5,2599.5C 1099.5,2632.83 1099.5,2666.17 1099.5,2699.5C 1066.17,2699.5 1032.83,2699.5 999.5,2699.5C 999.5,2666.17 999.5,2632.83 999.5,2599.5 Z"/></g>
<g><path style="opacity:1" fill="#44341d" d="M 1399.5,2599.5 C 1399.5,2666.17 1399.5,2732.83 1399.5,2799.5C 1366.17,2799.5 1332.83,2799.5 1299.5,2799.5C 1299.5,2866.17 1299.5,2932.83 1299.5,2999.5C 1266.17,2999.5 1232.83,2999.5 1199.5,2999.5C 1199.5,2966.17 1199.5,2932.83 1199.5,2899.5C 1166.17,2899.5 1132.83,2899.5 1099.5,2899.5C 1099.5,2832.83 1099.5,2766.17 1099.5,2699.5C 1132.83,2699.5 1166.17,2699.5 1199.5,2699.5C 1199.5,2666.17 1199.5,2632.83 1199.5,2599.5C 1266.17,2599.5 1332.83,2599.5 1399.5,2599.5 Z"/></g>
<g><path style="opacity:1" fill="#3d9254" d="M 3299.5,2599.5 C 3299.5,2632.83 3299.5,2666.17 3299.5,2699.5C 3232.83,2699.5 3166.17,2699.5 3099.5,2699.5C 3099.5,2666.17 3099.5,2632.83 3099.5,2599.5C 3166.17,2599.5 3232.83,2599.5 3299.5,2599.5 Z"/></g>
<g><path style="opacity:1" fill="#4f3d22" d="M 3899.5,2599.5 C 3966.17,2599.5 4032.83,2599.5 4099.5,2599.5C 4099.5,2632.83 4099.5,2666.17 4099.5,2699.5C 4032.83,2699.5 3966.17,2699.5 3899.5,2699.5C 3899.5,2666.17 3899.5,2632.83 3899.5,2599.5 Z"/></g>
<g><path style="opacity:1" fill="#8b7453" d="M 999.5,2699.5 C 1032.83,2699.5 1066.17,2699.5 1099.5,2699.5C 1099.5,2766.17 1099.5,2832.83 1099.5,2899.5C 1066.17,2899.5 1032.83,2899.5 999.5,2899.5C 999.5,2832.83 999.5,2766.17 999.5,2699.5 Z"/></g>
<g><path style="opacity:1" fill="#3d9254" d="M 3099.5,2699.5 C 3099.5,2732.83 3099.5,2766.17 3099.5,2799.5C 3066.17,2799.5 3032.83,2799.5 2999.5,2799.5C 2999.5,2866.17 2999.5,2932.83 2999.5,2999.5C 2966.17,2999.5 2932.83,2999.5 2899.5,2999.5C 2899.5,2899.5 2899.5,2799.5 2899.5,2699.5C 2966.17,2699.5 3032.83,2699.5 3099.5,2699.5 Z"/></g>
<g><path style="opacity:1" fill="#2f2414" d="M 3099.5,2699.5 C 3166.17,2699.5 3232.83,2699.5 3299.5,2699.5C 3299.5,2732.83 3299.5,2766.17 3299.5,2799.5C 3366.17,2799.5 3432.83,2799.5 3499.5,2799.5C 3499.5,2832.83 3499.5,2866.17 3499.5,2899.5C 3566.17,2899.5 3632.83,2899.5 3699.5,2899.5C 3699.5,2932.83 3699.5,2966.17 3699.5,2999.5C 3766.17,2999.5 3832.83,2999.5 3899.5,2999.5C 3899.5,3032.83 3899.5,3066.17 3899.5,3099.5C 3966.17,3099.5 4032.83,3099.5 4099.5,3099.5C 4099.5,3266.17 4099.5,3432.83 4099.5,3599.5C 4066.17,3599.5 4032.83,3599.5 3999.5,3599.5C 3999.5,3566.17 3999.5,3532.83 3999.5,3499.5C 3932.83,3499.5 3866.17,3499.5 3799.5,3499.5C 3799.5,3466.17 3799.5,3432.83 3799.5,3399.5C 3732.83,3399.5 3666.17,3399.5 3599.5,3399.5C 3599.5,3366.17 3599.5,3332.83 3599.5,3299.5C 3532.83,3299.5 3466.17,3299.5 3399.5,3299.5C 3399.5,3266.17 3399.5,3232.83 3399.5,3199.5C 3332.83,3199.5 3266.17,3199.5 3199.5,3199.5C 3199.5,3166.17 3199.5,3132.83 3199.5,3099.5C 3132.83,3099.5 3066.17,3099.5 2999.5,3099.5C 2999.5,3066.17 2999.5,3032.83 2999.5,2999.5C 2999.5,2932.83 2999.5,2866.17 2999.5,2799.5C 3032.83,2799.5 3066.17,2799.5 3099.5,2799.5C 3099.5,2766.17 3099.5,2732.83 3099.5,2699.5 Z"/></g>
<g><path style="opacity:1" fill="#615139" d="M 3299.5,2699.5 C 3366.17,2699.5 3432.83,2699.5 3499.5,2699.5C 3499.5,2732.83 3499.5,2766.17 3499.5,2799.5C 3432.83,2799.5 3366.17,2799.5 3299.5,2799.5C 3299.5,2766.17 3299.5,2732.83 3299.5,2699.5 Z"/></g>
<g><path style="opacity:1" fill="#615139" d="M 3499.5,2799.5 C 3566.17,2799.5 3632.83,2799.5 3699.5,2799.5C 3699.5,2832.83 3699.5,2866.17 3699.5,2899.5C 3632.83,2899.5 3566.17,2899.5 3499.5,2899.5C 3499.5,2866.17 3499.5,2832.83 3499.5,2799.5 Z"/></g>
<g><path style="opacity:1" fill="#4f3d22" d="M 4299.5,2799.5 C 4366.17,2799.5 4432.83,2799.5 4499.5,2799.5C 4499.5,2832.83 4499.5,2866.17 4499.5,2899.5C 4432.83,2899.5 4366.17,2899.5 4299.5,2899.5C 4299.5,2866.17 4299.5,2832.83 4299.5,2799.5 Z"/></g>
<g><path style="opacity:1" fill="#8b7453" d="M 1099.5,2899.5 C 1132.83,2899.5 1166.17,2899.5 1199.5,2899.5C 1199.5,2932.83 1199.5,2966.17 1199.5,2999.5C 1199.5,3066.17 1199.5,3132.83 1199.5,3199.5C 1166.17,3199.5 1132.83,3199.5 1099.5,3199.5C 1099.5,3099.5 1099.5,2999.5 1099.5,2899.5 Z"/></g>
<g><path style="opacity:1" fill="#615139" d="M 3699.5,2899.5 C 3766.17,2899.5 3832.83,2899.5 3899.5,2899.5C 3899.5,2932.83 3899.5,2966.17 3899.5,2999.5C 3832.83,2999.5 3766.17,2999.5 3699.5,2999.5C 3699.5,2966.17 3699.5,2932.83 3699.5,2899.5 Z"/></g>
<g><path style="opacity:1" fill="#615139" d="M 4499.5,2899.5 C 4532.83,2899.5 4566.17,2899.5 4599.5,2899.5C 4599.5,2932.83 4599.5,2966.17 4599.5,2999.5C 4566.17,2999.5 4532.83,2999.5 4499.5,2999.5C 4499.5,2966.17 4499.5,2932.83 4499.5,2899.5 Z"/></g>
<g><path style="opacity:1" fill="#4f3d22" d="M 4599.5,2899.5 C 4632.83,2899.5 4666.17,2899.5 4699.5,2899.5C 4699.5,3299.5 4699.5,3699.5 4699.5,4099.5C 4632.83,4099.5 4566.17,4099.5 4499.5,4099.5C 4499.5,4132.83 4499.5,4166.17 4499.5,4199.5C 4432.83,4199.5 4366.17,4199.5 4299.5,4199.5C 4299.5,4232.83 4299.5,4266.17 4299.5,4299.5C 4232.83,4299.5 4166.17,4299.5 4099.5,4299.5C 4099.5,4332.83 4099.5,4366.17 4099.5,4399.5C 4032.83,4399.5 3966.17,4399.5 3899.5,4399.5C 3899.5,4432.83 3899.5,4466.17 3899.5,4499.5C 3832.83,4499.5 3766.17,4499.5 3699.5,4499.5C 3699.5,4532.83 3699.5,4566.17 3699.5,4599.5C 3632.83,4599.5 3566.17,4599.5 3499.5,4599.5C 3499.5,4632.83 3499.5,4666.17 3499.5,4699.5C 3432.83,4699.5 3366.17,4699.5 3299.5,4699.5C 3299.5,4732.83 3299.5,4766.17 3299.5,4799.5C 3232.83,4799.5 3166.17,4799.5 3099.5,4799.5C 3099.5,4832.83 3099.5,4866.17 3099.5,4899.5C 3032.83,4899.5 2966.17,4899.5 2899.5,4899.5C 2899.5,4932.83 2899.5,4966.17 2899.5,4999.5C 2832.83,4999.5 2766.17,4999.5 2699.5,4999.5C 2699.5,5032.83 2699.5,5066.17 2699.5,5099.5C 2632.83,5099.5 2566.17,5099.5 2499.5,5099.5C 2499.5,5132.83 2499.5,5166.17 2499.5,5199.5C 2466.17,5199.5 2432.83,5199.5 2399.5,5199.5C 2399.5,4566.17 2399.5,3932.83 2399.5,3299.5C 2432.83,3299.5 2466.17,3299.5 2499.5,3299.5C 2499.5,3266.17 2499.5,3232.83 2499.5,3199.5C 2566.17,3199.5 2632.83,3199.5 2699.5,3199.5C 2699.5,3166.17 2699.5,3132.83 2699.5,3099.5C 2766.17,3099.5 2832.83,3099.5 2899.5,3099.5C 2899.5,3066.17 2899.5,3032.83 2899.5,2999.5C 2932.83,2999.5 2966.17,2999.5 2999.5,2999.5C 2999.5,3032.83 2999.5,3066.17 2999.5,3099.5C 3066.17,3099.5 3132.83,3099.5 3199.5,3099.5C 3199.5,3132.83 3199.5,3166.17 3199.5,3199.5C 3132.83,3199.5 3066.17,3199.5 2999.5,3199.5C 2999.5,3532.83 2999.5,3866.17 2999.5,4199.5C 2999.5,4232.83 2999.5,4266.17 2999.5,4299.5C 3032.83,4299.5 3066.17,4299.5 3099.5,4299.5C 3099.5,4266.17 3099.5,4232.83 3099.5,4199.5C 3166.17,4199.5 3232.83,4199.5 3299.5,4199.5C 3299.5,4166.17 3299.5,4132.83 3299.5,4099.5C 3366.17,4099.5 3432.83,4099.5 3499.5,4099.5C 3499.5,4066.17 3499.5,4032.83 3499.5,3999.5C 3566.17,3999.5 3632.83,3999.5 3699.5,3999.5C 3699.5,3966.17 3699.5,3932.83 3699.5,3899.5C 3766.17,3899.5 3832.83,3899.5 3899.5,3899.5C 3899.5,3866.17 3899.5,3832.83 3899.5,3799.5C 3966.17,3799.5 4032.83,3799.5 4099.5,3799.5C 4099.5,3766.17 4099.5,3732.83 4099.5,3699.5C 4132.83,3699.5 4166.17,3699.5 4199.5,3699.5C 4199.5,3532.83 4199.5,3366.17 4199.5,3199.5C 4232.83,3199.5 4266.17,3199.5 4299.5,3199.5C 4299.5,3166.17 4299.5,3132.83 4299.5,3099.5C 4366.17,3099.5 4432.83,3099.5 4499.5,3099.5C 4499.5,3066.17 4499.5,3032.83 4499.5,2999.5C 4532.83,2999.5 4566.17,2999.5 4599.5,2999.5C 4599.5,2966.17 4599.5,2932.83 4599.5,2899.5 Z"/></g>
<g><path style="opacity:1" fill="#615139" d="M 3899.5,2999.5 C 3966.17,2999.5 4032.83,2999.5 4099.5,2999.5C 4099.5,3032.83 4099.5,3066.17 4099.5,3099.5C 4032.83,3099.5 3966.17,3099.5 3899.5,3099.5C 3899.5,3066.17 3899.5,3032.83 3899.5,2999.5 Z"/></g>
<g><path style="opacity:1" fill="#615139" d="M 4499.5,2999.5 C 4499.5,3032.83 4499.5,3066.17 4499.5,3099.5C 4432.83,3099.5 4366.17,3099.5 4299.5,3099.5C 4299.5,3066.17 4299.5,3032.83 4299.5,2999.5C 4366.17,2999.5 4432.83,2999.5 4499.5,2999.5 Z"/></g>
<g><path style="opacity:1" fill="#44341d" d="M 599.5,3099.5 C 632.833,3099.5 666.167,3099.5 699.5,3099.5C 699.5,3199.5 699.5,3299.5 699.5,3399.5C 732.833,3399.5 766.167,3399.5 799.5,3399.5C 799.5,3499.5 799.5,3599.5 799.5,3699.5C 832.833,3699.5 866.167,3699.5 899.5,3699.5C 899.5,3799.5 899.5,3899.5 899.5,3999.5C 866.167,3999.5 832.833,3999.5 799.5,3999.5C 799.5,4032.83 799.5,4066.17 799.5,4099.5C 732.833,4099.5 666.167,4099.5 599.5,4099.5C 599.5,3766.17 599.5,3432.83 599.5,3099.5 Z"/></g>
<g><path style="opacity:1" fill="#615139" d="M 4099.5,3099.5 C 4166.17,3099.5 4232.83,3099.5 4299.5,3099.5C 4299.5,3132.83 4299.5,3166.17 4299.5,3199.5C 4266.17,3199.5 4232.83,3199.5 4199.5,3199.5C 4199.5,3366.17 4199.5,3532.83 4199.5,3699.5C 4166.17,3699.5 4132.83,3699.5 4099.5,3699.5C 4099.5,3666.17 4099.5,3632.83 4099.5,3599.5C 4099.5,3432.83 4099.5,3266.17 4099.5,3099.5 Z"/></g>
<g><path style="opacity:1" fill="#2f2414" d="M 3199.5,3199.5 C 3199.5,3232.83 3199.5,3266.17 3199.5,3299.5C 3266.17,3299.5 3332.83,3299.5 3399.5,3299.5C 3399.5,3332.83 3399.5,3366.17 3399.5,3399.5C 3466.17,3399.5 3532.83,3399.5 3599.5,3399.5C 3599.5,3432.83 3599.5,3466.17 3599.5,3499.5C 3666.17,3499.5 3732.83,3499.5 3799.5,3499.5C 3799.5,3532.83 3799.5,3566.17 3799.5,3599.5C 3866.17,3599.5 3932.83,3599.5 3999.5,3599.5C 3999.5,3632.83 3999.5,3666.17 3999.5,3699.5C 3966.17,3699.5 3932.83,3699.5 3899.5,3699.5C 3899.5,3732.83 3899.5,3766.17 3899.5,3799.5C 3832.83,3799.5 3766.17,3799.5 3699.5,3799.5C 3699.5,3832.83 3699.5,3866.17 3699.5,3899.5C 3632.83,3899.5 3566.17,3899.5 3499.5,3899.5C 3499.5,3932.83 3499.5,3966.17 3499.5,3999.5C 3432.83,3999.5 3366.17,3999.5 3299.5,3999.5C 3299.5,4032.83 3299.5,4066.17 3299.5,4099.5C 3232.83,4099.5 3166.17,4099.5 3099.5,4099.5C 3099.5,4132.83 3099.5,4166.17 3099.5,4199.5C 3066.17,4199.5 3032.83,4199.5 2999.5,4199.5C 2999.5,3866.17 2999.5,3532.83 2999.5,3199.5C 3066.17,3199.5 3132.83,3199.5 3199.5,3199.5 Z"/></g>
<g><path style="opacity:1" fill="#4f3d22" d="M 3199.5,3199.5 C 3266.17,3199.5 3332.83,3199.5 3399.5,3199.5C 3399.5,3232.83 3399.5,3266.17 3399.5,3299.5C 3332.83,3299.5 3266.17,3299.5 3199.5,3299.5C 3199.5,3266.17 3199.5,3232.83 3199.5,3199.5 Z"/></g>
<g><path style="opacity:1" fill="#8b7453" d="M 2299.5,3299.5 C 2332.83,3299.5 2366.17,3299.5 2399.5,3299.5C 2399.5,3932.83 2399.5,4566.17 2399.5,5199.5C 2366.17,5199.5 2332.83,5199.5 2299.5,5199.5C 2299.5,4566.17 2299.5,3932.83 2299.5,3299.5 Z"/></g>
<g><path style="opacity:1" fill="#4f3d22" d="M 3399.5,3299.5 C 3466.17,3299.5 3532.83,3299.5 3599.5,3299.5C 3599.5,3332.83 3599.5,3366.17 3599.5,3399.5C 3532.83,3399.5 3466.17,3399.5 3399.5,3399.5C 3399.5,3366.17 3399.5,3332.83 3399.5,3299.5 Z"/></g>
<g><path style="opacity:1" fill="#8b7453" d="M 1799.5,3599.5 C 1766.17,3599.5 1732.83,3599.5 1699.5,3599.5C 1699.5,3532.83 1699.5,3466.17 1699.5,3399.5C 1732.83,3399.5 1766.17,3399.5 1799.5,3399.5C 1799.5,3466.17 1799.5,3532.83 1799.5,3599.5 Z"/></g>
<g><path style="opacity:1" fill="#4f3d22" d="M 3599.5,3399.5 C 3666.17,3399.5 3732.83,3399.5 3799.5,3399.5C 3799.5,3432.83 3799.5,3466.17 3799.5,3499.5C 3732.83,3499.5 3666.17,3499.5 3599.5,3499.5C 3599.5,3466.17 3599.5,3432.83 3599.5,3399.5 Z"/></g>
<g><path style="opacity:1" fill="#4f3d22" d="M 3799.5,3499.5 C 3866.17,3499.5 3932.83,3499.5 3999.5,3499.5C 3999.5,3532.83 3999.5,3566.17 3999.5,3599.5C 3932.83,3599.5 3866.17,3599.5 3799.5,3599.5C 3799.5,3566.17 3799.5,3532.83 3799.5,3499.5 Z"/></g>
<g><path style="opacity:1" fill="#8b7453" d="M 1699.5,3599.5 C 1699.5,3666.17 1699.5,3732.83 1699.5,3799.5C 1666.17,3799.5 1632.83,3799.5 1599.5,3799.5C 1599.5,3732.83 1599.5,3666.17 1599.5,3599.5C 1632.83,3599.5 1666.17,3599.5 1699.5,3599.5 Z"/></g>
<g><path style="opacity:1" fill="#44341d" d="M 1699.5,3599.5 C 1732.83,3599.5 1766.17,3599.5 1799.5,3599.5C 1799.5,3799.5 1799.5,3999.5 1799.5,4199.5C 1766.17,4199.5 1732.83,4199.5 1699.5,4199.5C 1699.5,4232.83 1699.5,4266.17 1699.5,4299.5C 1632.83,4299.5 1566.17,4299.5 1499.5,4299.5C 1499.5,4332.83 1499.5,4366.17 1499.5,4399.5C 1466.17,4399.5 1432.83,4399.5 1399.5,4399.5C 1399.5,4332.83 1399.5,4266.17 1399.5,4199.5C 1432.83,4199.5 1466.17,4199.5 1499.5,4199.5C 1499.5,4132.83 1499.5,4066.17 1499.5,3999.5C 1532.83,3999.5 1566.17,3999.5 1599.5,3999.5C 1599.5,3932.83 1599.5,3866.17 1599.5,3799.5C 1632.83,3799.5 1666.17,3799.5 1699.5,3799.5C 1699.5,3732.83 1699.5,3666.17 1699.5,3599.5 Z"/></g>
<g><path style="opacity:1" fill="#4f3d22" d="M 3999.5,3599.5 C 4032.83,3599.5 4066.17,3599.5 4099.5,3599.5C 4099.5,3632.83 4099.5,3666.17 4099.5,3699.5C 4066.17,3699.5 4032.83,3699.5 3999.5,3699.5C 3999.5,3666.17 3999.5,3632.83 3999.5,3599.5 Z"/></g>
<g><path style="opacity:1" fill="#615139" d="M 3999.5,3699.5 C 4032.83,3699.5 4066.17,3699.5 4099.5,3699.5C 4099.5,3732.83 4099.5,3766.17 4099.5,3799.5C 4032.83,3799.5 3966.17,3799.5 3899.5,3799.5C 3899.5,3766.17 3899.5,3732.83 3899.5,3699.5C 3932.83,3699.5 3966.17,3699.5 3999.5,3699.5 Z"/></g>
<g><path style="opacity:1" fill="#8b7453" d="M 1599.5,3799.5 C 1599.5,3866.17 1599.5,3932.83 1599.5,3999.5C 1566.17,3999.5 1532.83,3999.5 1499.5,3999.5C 1499.5,3932.83 1499.5,3866.17 1499.5,3799.5C 1532.83,3799.5 1566.17,3799.5 1599.5,3799.5 Z"/></g>
<g><path style="opacity:1" fill="#615139" d="M 3899.5,3799.5 C 3899.5,3832.83 3899.5,3866.17 3899.5,3899.5C 3832.83,3899.5 3766.17,3899.5 3699.5,3899.5C 3699.5,3866.17 3699.5,3832.83 3699.5,3799.5C 3766.17,3799.5 3832.83,3799.5 3899.5,3799.5 Z"/></g>
<g><path style="opacity:1" fill="#615139" d="M 3699.5,3899.5 C 3699.5,3932.83 3699.5,3966.17 3699.5,3999.5C 3632.83,3999.5 3566.17,3999.5 3499.5,3999.5C 3499.5,3966.17 3499.5,3932.83 3499.5,3899.5C 3566.17,3899.5 3632.83,3899.5 3699.5,3899.5 Z"/></g>
<g><path style="opacity:1" fill="#8b7453" d="M 1499.5,3999.5 C 1499.5,4066.17 1499.5,4132.83 1499.5,4199.5C 1466.17,4199.5 1432.83,4199.5 1399.5,4199.5C 1399.5,4132.83 1399.5,4066.17 1399.5,3999.5C 1432.83,3999.5 1466.17,3999.5 1499.5,3999.5 Z"/></g>
<g><path style="opacity:1" fill="#615139" d="M 3499.5,3999.5 C 3499.5,4032.83 3499.5,4066.17 3499.5,4099.5C 3432.83,4099.5 3366.17,4099.5 3299.5,4099.5C 3299.5,4066.17 3299.5,4032.83 3299.5,3999.5C 3366.17,3999.5 3432.83,3999.5 3499.5,3999.5 Z"/></g>
<g><path style="opacity:1" fill="#725732" d="M 599.5,4099.5 C 666.167,4099.5 732.833,4099.5 799.5,4099.5C 799.5,4132.83 799.5,4166.17 799.5,4199.5C 732.833,4199.5 666.167,4199.5 599.5,4199.5C 599.5,4166.17 599.5,4132.83 599.5,4099.5 Z"/></g>
<g><path style="opacity:1" fill="#615139" d="M 3299.5,4099.5 C 3299.5,4132.83 3299.5,4166.17 3299.5,4199.5C 3232.83,4199.5 3166.17,4199.5 3099.5,4199.5C 3099.5,4166.17 3099.5,4132.83 3099.5,4099.5C 3166.17,4099.5 3232.83,4099.5 3299.5,4099.5 Z"/></g>
<g><path style="opacity:1" fill="#8b7453" d="M 1399.5,4199.5 C 1399.5,4266.17 1399.5,4332.83 1399.5,4399.5C 1366.17,4399.5 1332.83,4399.5 1299.5,4399.5C 1299.5,4332.83 1299.5,4266.17 1299.5,4199.5C 1332.83,4199.5 1366.17,4199.5 1399.5,4199.5 Z"/></g>
<g><path style="opacity:1" fill="#615139" d="M 2999.5,4199.5 C 3032.83,4199.5 3066.17,4199.5 3099.5,4199.5C 3099.5,4232.83 3099.5,4266.17 3099.5,4299.5C 3066.17,4299.5 3032.83,4299.5 2999.5,4299.5C 2999.5,4266.17 2999.5,4232.83 2999.5,4199.5 Z"/></g>
<g><path style="opacity:1" fill="#725732" d="M 1699.5,4299.5 C 1699.5,4332.83 1699.5,4366.17 1699.5,4399.5C 1632.83,4399.5 1566.17,4399.5 1499.5,4399.5C 1499.5,4366.17 1499.5,4332.83 1499.5,4299.5C 1566.17,4299.5 1632.83,4299.5 1699.5,4299.5 Z"/></g>
<g><path style="opacity:1" fill="#8b7453" d="M 1299.5,4399.5 C 1299.5,4432.83 1299.5,4466.17 1299.5,4499.5C 1299.5,4532.83 1299.5,4566.17 1299.5,4599.5C 1266.17,4599.5 1232.83,4599.5 1199.5,4599.5C 1199.5,4532.83 1199.5,4466.17 1199.5,4399.5C 1232.83,4399.5 1266.17,4399.5 1299.5,4399.5 Z"/></g>
<g><path style="opacity:1" fill="#725732" d="M 1299.5,4399.5 C 1332.83,4399.5 1366.17,4399.5 1399.5,4399.5C 1432.83,4399.5 1466.17,4399.5 1499.5,4399.5C 1499.5,4432.83 1499.5,4466.17 1499.5,4499.5C 1432.83,4499.5 1366.17,4499.5 1299.5,4499.5C 1299.5,4466.17 1299.5,4432.83 1299.5,4399.5 Z"/></g>
</svg>
